<?xml version="1.0" encoding="utf-8"?>
<!-- Generator: Adobe Illustrator 24.0.1, SVG Export Plug-In . SVG Version: 6.00 Build 0)  -->
<svg version="1.1" id="Layer_1" xmlns="http://www.w3.org/2000/svg" xmlns:xlink="http://www.w3.org/1999/xlink" x="0px" y="0px"
	 viewBox="0 0 120 60" style="enable-background:new 0 0 120 60;" xml:space="preserve">
<style type="text/css">
	.st0{fill:#FFFFFF;}
</style>
<g>
	<polygon points="3.1,4.7 117.3,2.2 113.4,57.8 5,54 	"/>
</g>
<g>
	<path class="st0" d="M19.3,21.5c1.1,0.8,1.8,2,2.1,3.4h-3.5c-0.2-0.5-0.6-0.9-1.1-1.2c-0.5-0.3-1.1-0.4-1.7-0.4
		c-1.1,0-1.9,0.4-2.5,1.1s-1,1.7-1,2.9c0,1.3,0.3,2.3,1,3s1.6,1.1,2.9,1.1c0.8,0,1.5-0.2,2.1-0.7c0.6-0.4,1-1.1,1.3-1.9h-4.2v-2.4h7
		v3.3c-0.3,0.8-0.7,1.6-1.3,2.3c-0.6,0.7-1.3,1.3-2.2,1.7c-0.9,0.4-1.9,0.6-3.1,0.6c-1.4,0-2.6-0.3-3.7-0.9c-1-0.6-1.8-1.4-2.4-2.5
		s-0.9-2.3-0.9-3.7s0.3-2.6,0.9-3.7c0.6-1.1,1.4-1.9,2.4-2.5s2.2-0.9,3.6-0.9C16.7,20.3,18.1,20.7,19.3,21.5z"/>
	<path class="st0" d="M28.4,23.8c0.7-0.4,1.4-0.6,2.1-0.6v3.6h-1c-0.9,0-1.6,0.2-2.1,0.6s-0.7,1-0.7,1.9v5h-3.3v-11h3.3v2.1
		C27.2,24.7,27.7,24.2,28.4,23.8z"/>
	<path class="st0" d="M42.2,29.4h-7.6c0,0.8,0.2,1.4,0.6,1.8c0.4,0.4,0.9,0.5,1.4,0.5s0.9-0.1,1.2-0.4c0.3-0.2,0.5-0.6,0.6-1h3.5
		c-0.1,0.8-0.5,1.5-0.9,2.1c-0.5,0.6-1.1,1.1-1.8,1.4c-0.7,0.3-1.6,0.5-2.5,0.5c-1.1,0-2-0.2-2.8-0.7s-1.5-1.1-1.9-1.9
		c-0.5-0.8-0.7-1.8-0.7-3c0-1.1,0.2-2.1,0.7-3c0.5-0.8,1.1-1.5,1.9-1.9c0.8-0.5,1.8-0.7,2.9-0.7c1.1,0,2,0.2,2.9,0.7
		s1.5,1.1,1.9,1.9c0.5,0.8,0.7,1.7,0.7,2.8C42.3,28.7,42.3,29,42.2,29.4z M38.3,26.4c-0.4-0.4-0.9-0.5-1.5-0.5s-1.1,0.2-1.5,0.5
		c-0.4,0.4-0.6,0.9-0.7,1.6h4.3C38.9,27.2,38.7,26.7,38.3,26.4z"/>
	<path class="st0" d="M50.3,23.7c0.6,0.4,1,0.9,1.3,1.5v-2H55v10.9h-3.3v-2c-0.3,0.7-0.7,1.2-1.3,1.5c-0.6,0.4-1.3,0.6-2.2,0.6
		s-1.7-0.2-2.4-0.7s-1.3-1.1-1.7-1.9c-0.4-0.8-0.6-1.8-0.6-3c0-1.1,0.2-2.1,0.6-3c0.4-0.8,1-1.5,1.7-1.9
		C46.5,23.2,49.2,23,50.3,23.7z M46.8,28.8c0,0.8,0.2,1.5,0.7,2c0.4,0.5,1,0.7,1.7,0.7s1.3-0.2,1.7-0.7c0.5-0.5,0.7-1.1,0.7-1.9
		s-0.2-1.5-0.7-1.9c-0.5-0.5-1-0.7-1.7-0.7C47.4,26.3,46.8,27.9,46.8,28.8z"/>
	<path class="st0" d="M63.5,31.4v2.9H62c-1.3,0-2.3-0.3-3-0.9c-0.7-0.6-1.1-1.7-1.1-3.1v-4h-1.5v-2.8h1.5v-2.7h3.3v2.7h2.2v2.8h-2.2
		v4.1c0,0.4,0.1,0.7,0.3,0.9s0.5,0.3,0.9,0.3h1.1V31.4z"/>
	<path class="st0" d="M75.6,23.7c0.6,0.4,1,0.9,1.3,1.5v-5.5h3.3v14.5h-3.3v-2c-0.3,0.7-0.7,1.2-1.3,1.5c-0.6,0.4-1.3,0.6-2.2,0.6
		c-0.9,0-1.7-0.2-2.4-0.7c-0.7-0.5-1.3-1.1-1.7-1.9c-0.4-0.8-0.6-1.8-0.6-3c0-1.1,0.2-2.1,0.6-3c0.4-0.8,1-1.5,1.7-1.9
		c0.7-0.5,1.5-0.7,2.4-0.7C74.3,23.2,75,23.4,75.6,23.7z M72.8,26.8c-0.4,0.5-0.7,1.1-0.7,2c0,0.8,0.2,1.5,0.7,2s1,0.7,1.7,0.7
		s1.3-0.2,1.7-0.7c0.5-0.5,0.7-1.1,0.7-1.9s-0.2-1.4-0.7-1.9C75.1,25.9,73.2,26.3,72.8,26.8z"/>
	<path class="st0" d="M92.8,29.4h-7.6c0,0.8,0.2,1.4,0.6,1.8s0.9,0.5,1.4,0.5s0.9-0.1,1.2-0.4c0.3-0.2,0.5-0.6,0.6-1h3.5
		c-0.1,0.8-0.5,1.5-0.9,2.1c-0.5,0.6-1.1,1.1-1.8,1.4c-0.7,0.3-1.6,0.5-2.5,0.5c-1.1,0-2-0.2-2.8-0.7s-1.5-1.1-1.9-1.9
		c-0.5-0.8-0.7-1.8-0.7-3c0-1.1,0.2-2.1,0.7-3c0.5-0.8,1.1-1.5,1.9-1.9c0.8-0.5,1.8-0.7,2.9-0.7s2,0.2,2.9,0.7s1.5,1.1,1.9,1.9
		c0.5,0.8,0.7,1.7,0.7,2.8C92.9,28.7,92.9,29,92.8,29.4z M89,26.4c-0.4-0.4-0.9-0.5-1.5-0.5s-1.1,0.2-1.5,0.5
		c-0.4,0.4-0.6,0.9-0.7,1.6h4.3C89.6,27.2,89.4,26.7,89,26.4z"/>
	<path class="st0" d="M101,23.7c0.6,0.4,1,0.9,1.3,1.5v-2h3.3v10.9h-3.3v-2c-0.3,0.7-0.7,1.2-1.3,1.5c-0.6,0.4-1.3,0.6-2.2,0.6
		c-0.9,0-1.7-0.2-2.4-0.7c-0.7-0.5-1.3-1.1-1.7-1.9c-0.4-0.8-0.6-1.8-0.6-3c0-1.1,0.2-2.1,0.6-3c0.4-0.8,1-1.5,1.7-1.9
		c0.7-0.5,1.5-0.7,2.4-0.7C99.7,23.2,100.4,23.4,101,23.7z M97.5,28.8c0,0.8,0.2,1.5,0.7,2c0.4,0.5,1,0.7,1.7,0.7s1.3-0.2,1.7-0.7
		c0.5-0.5,0.7-1.1,0.7-1.9s-0.2-1.5-0.7-1.9c-0.5-0.5-1-0.7-1.7-0.7C98.2,26.3,97.5,27.9,97.5,28.8z"/>
	<path class="st0" d="M111.3,19.7v14.5H108V19.7H111.3z"/>
</g>
</svg>
