<?xml version="1.0" encoding="UTF-8"?><svg id="a" xmlns="http://www.w3.org/2000/svg" viewBox="0 0 136 55.4"><defs><style>.d{fill:#fff;}.e{fill-rule:evenodd;}</style></defs><g id="b"><g id="c"><polygon class="e" points="2 8.2 4 46.6 131 49 134 6.1 2 8.2"/></g></g><g><path class="d" d="M32.04,25.74c0,5.55-3.84,9.37-9.82,9.37h-7.02V16.37h7.02c5.98,0,9.82,3.79,9.82,9.37Zm-10.11,5.42c3.44,0,5.47-1.97,5.47-5.42s-2.03-5.47-5.47-5.47h-2.16v10.89h2.16Z"/><path class="d" d="M34.18,16.21c0-1.39,1.09-2.48,2.72-2.48s2.7,1.09,2.7,2.48-1.09,2.46-2.7,2.46-2.72-1.09-2.72-2.46Zm.43,4h4.56v14.89h-4.56v-14.89Z"/><path class="d" d="M48.53,35.32c-3.98,0-6.65-2.22-6.86-5.1h4.51c.11,1.04,1.04,1.73,2.29,1.73,1.17,0,1.79-.53,1.79-1.2,0-2.4-8.11-.67-8.11-6.14,0-2.54,2.16-4.62,6.06-4.62s5.98,2.13,6.27,5.07h-4.22c-.13-1.01-.91-1.68-2.19-1.68-1.07,0-1.65,.43-1.65,1.15,0,2.38,8.06,.69,8.14,6.25,0,2.59-2.29,4.54-6.03,4.54Z"/><path class="d" d="M67.64,27.02c0-2.03-1.12-3.15-2.86-3.15s-2.86,1.12-2.86,3.15v8.09h-4.56v-14.89h4.56v1.97c.91-1.25,2.51-2.13,4.51-2.13,3.44,0,5.74,2.35,5.74,6.35v8.7h-4.54v-8.09Z"/><path class="d" d="M81.97,35.32c-4.38,0-7.53-2.94-7.53-7.66s3.1-7.66,7.53-7.66,7.42,2.88,7.42,7.42c0,.43-.03,.88-.08,1.33h-10.33c.16,1.95,1.36,2.86,2.83,2.86,1.28,0,2-.64,2.38-1.44h4.86c-.72,2.91-3.36,5.15-7.07,5.15Zm-2.96-9.1h5.71c0-1.63-1.28-2.56-2.8-2.56s-2.64,.91-2.91,2.56Z"/><path class="d" d="M102.07,20.21h4.94l-9.34,21.96h-4.91l3.42-7.58-6.06-14.38h5.1l3.44,9.31,3.42-9.31Z"/><path class="d" d="M117.54,18.96v4.78h4.64v4.08h-4.64v4.75h-4.32v-4.75h-4.64v-4.08h4.64v-4.78h4.32Z"/></g></svg>